<svg xmlns="http://www.w3.org/2000/svg" viewBox="0 0 37 37" height="37" width="37"><title>triangle-15.svg</title><rect fill="none" x="0" y="0" width="37" height="37"></rect><rect x="3" y="3" rx="16" ry="16" width="30" height="30" stroke="#6be01d" style="stroke-linejoin:round;stroke-miterlimit:4px;" fill="#6be01d" stroke-width="5"></rect><rect x="3" y="3" width="30" height="30" rx="16" ry="16" fill="#000"></rect><path fill="#6be01d" transform="translate(11 11)" d="M7.5385,2
	C7.2437,2,7.0502,2.1772,6.9231,2.3846l-5.8462,9.5385C1,12,1,12.1538,1,12.3077C1,12.8462,1.3846,13,1.6923,13h11.6154
	C13.6923,13,14,12.8462,14,12.3077c0-0.1538,0-0.2308-0.0769-0.3846L8.1538,2.3846C8.028,2.1765,7.7882,2,7.5385,2z" style="stroke-linejoin:round;stroke-miterlimit:4px;" stroke="#6be01d" stroke-width="2"></path><path fill="#6be01d" transform="translate(11 11)" d="M7.5385,2
	C7.2437,2,7.0502,2.1772,6.9231,2.3846l-5.8462,9.5385C1,12,1,12.1538,1,12.3077C1,12.8462,1.3846,13,1.6923,13h11.6154
	C13.6923,13,14,12.8462,14,12.3077c0-0.1538,0-0.2308-0.0769-0.3846L8.1538,2.3846C8.028,2.1765,7.7882,2,7.5385,2z"></path></svg>